# AST/ASF file generated using VICON BodyLanguage
# -----------------------------------------------
:version 1.10
:name VICON
:units
  mass 1.0
  length 0.45
  angle deg
:documentation
   .ast/.asf automatically generated from VICON data using
   VICON BodyBuilder and BodyLanguage model FoxedUp or BRILLIANT.MOD
:root
   order TX TY TZ RX RY RZ
   axis XYZ
   position 0 0 0  
   orientation 0 0 0 
:bonedata
  begin
     id 1 
     name lhipjoint
     direction 0.677091 -0.635792 0.370561 
     length 2.74323 
     axis 0 0 0  XYZ
  end
  begin
     id 2 
     name lfemur
     direction 0.34202 -0.939693 0  
     length 7.44995  
     axis 0 0 20  XYZ
    dof rx ry rz
    limits (-160.0 20.0)
           (-70.0 70.0)
           (-60.0 70.0)
  end
  begin
     id 3 
     name ltibia
     direction 0.34202 -0.939693 0   
     length 7.34467   
     axis 0 0 20   XYZ
    dof rx
    limits (-10.0 170.0)
  end
  begin
     id 4 
     name lfoot
     direction 0.101953 -0.280114 0.954537   
     length 1.72105   
     axis -90 7.62852e-016 20   XYZ
    dof rx rz
    limits (-45.0 90.0)
           (-70.0 20.0)
  end
  begin
     id 5 
     name ltoes
     direction 1.53537e-011 -4.21915e-011 1   
     length 0.865872   
     axis -90 7.62852e-016 20   XYZ
    dof rx
    limits (-90.0 20.0)
  end
  begin
     id 6 
     name rhipjoint
     direction -0.695735 -0.620586 0.361699   
     length 2.81045  
     axis 0 0 0  XYZ 
  end
  begin
     id 7 
     name rfemur
     direction -0.34202 -0.939693 0   
     length 7.29387   
     axis 0 0 -20   XYZ
    dof rx ry rz
    limits (-160.0 20.0)
           (-70.0 70.0)
           (-70.0 60.0)
  end
  begin
     id 8 
     name rtibia
     direction -0.34202 -0.939693 0   
     length 7.44935   
     axis 0 0 -20   XYZ
    dof rx
    limits (-10.0 170.0)
 end
 begin
     id 9 
     name rfoot
     direction -0.104163 -0.286184 0.952496   
     length 1.77731  
     axis -90 -7.62852e-016 -20   XYZ
    dof rx rz
    limits (-45.0 90.0)
           (-20.0 70.0)
  end
  begin
     id 10 
     name rtoes
     direction -1.5355e-011 -4.21888e-011 1   
     length 0.892424   
     axis -90 -7.62852e-016 -20   XYZ
    dof rx
    limits (-90.0 20.0)
  end
  begin
     id 11 
     name lowerback
     direction 0.0100202 0.997226 -0.0737589   
     length 2.16892   
     axis 0 0 0   XYZ
    dof rx ry rz
    limits (-20.0 45.0)
           (-30.0 30.0)
           (-30.0 30.0)
  end
  begin
     id 12 
     name upperback
     direction 0.00432398 0.999988 -0.00215019   
     length 2.17326   
     axis 0 0 0   XYZ
    dof rx ry rz
    limits (-20.0 45.0)
           (-30.0 30.0)
           (-30.0 30.0)
  end
  begin
     id 13 
     name thorax
     direction -0.00195047 0.999485 0.0320434   
     length 2.18139   
     axis 0 0 0   XYZ
    dof rx ry rz
    limits (-20.0 45.0)
           (-30.0 30.0)
           (-30.0 30.0)
  end
  begin
     id 14 
     name lowerneck
     direction 0.00782762 0.986241 0.165128   
     length 1.88415   
     axis 0 0 0   XYZ
    dof rx ry rz
    limits (-20.0 45.0)
           (-30.0 30.0)
           (-30.0 30.0)
  end
  begin
     id 15 
     name upperneck
     direction 0.00988667 0.981098 -0.193258   
     length 1.9242   
     axis 0 0 0   XYZ
    dof rx ry rz
    limits (-20.0 45.0)
           (-30.0 30.0)
           (-30.0 30.0)
  end
  begin
     id 16
     name head
     direction 0.00252199 0.996513 -0.0833958  
     length 1.93887  
     axis 0 0 0   XYZ
    dof rx ry rz
    limits (-20.0 45.0)
           (-30.0 30.0)
           (-30.0 30.0)
  end
  begin
     id 17 
     name lclavicle
     direction 0.929492 0.368193 -0.0218667  
     length 3.5955  
     axis 0 0 0   XYZ
    dof ry rz
    limits (-20.0 10.0)
           (0.0 20.0)
  end
  begin
     id 18 
     name lhumerus
     direction 1 -4.48972e-011 1.41911e-027   
     length 5.2795   
     axis 180 -30 -90   XYZ
    dof rx ry rz
    limits (-60.0 90.0)
           (-90.0 90.0)
           (-90.0 90.0)
  end
  begin
     id 19
     name lradius
     direction 1 -4.48963e-011 7.05772e-027   
     length 3.53504   
     axis 180 -30 -90   XYZ
    dof rx
    limits (-10.0 170.0)
  end
  begin
     id 20
     name lwrist
     direction 1 -4.48957e-011 9.54866e-027   
     length 1.76752   
     axis -7.69462e-015 90 90   XYZ
    dof ry
    limits (-180.0 0.0)
 end
  begin
     id 21 
     name lhand
     direction 1 -4.48979e-011 1.90973e-026   
     length 0.667948   
     axis -1.21857e-014 90 90   XYZ
    dof rx rz
    limits (-90.0 90.0)
           (-45.0 45.0)
  end
  begin
     id 22 
     name lfingers
     direction 1 -4.48987e-011 3.81946e-026   
     length 0.538517   
     axis -2.43714e-014 90 90   XYZ
    dof rx
    limits (0.0 90.0)
  end
  begin
     id 23
     name lthumb
     direction 0.707107 -6.34962e-011 0.707107   
     length 0.773206   
     axis -90 45 2.85299e-015   XYZ
    dof rx rz
    limits (-45.0 45.0)
           (-45.0 45.0)
  end
  begin
     id 24 
     name rclavicle
     direction -0.898763 0.414256 -0.143584   
     length 3.5176  
     axis 0 0 0   XYZ 
    dof ry rz
    limits (-10.0 20.0)
           (-20.0 0.0)
  end
  begin
     id 25 
     name rhumerus
     direction -1 -4.48971e-011 1.129e-027  
     length 5.25035   
     axis 180 30 90   XYZ
    dof rx ry rz
    limits (-90.0 60.0)
           (-90.0 90.0)
           (-90.0 90.0)
  end
  begin
     id 26 
     name rradius
     direction -1 -4.48955e-011 6.34664e-027   
     length 3.58884   
     axis 180 30 90   XYZ
    dof rx
    limits (-10.0 170.0)
  end
  begin
     id 27 
     name rwrist
     direction -1 -4.48966e-011 9.54866e-027   
     length 1.79442   
     axis -7.69462e-015 -90 -90   XYZ
    dof ry
    limits (-180.0 0.0)
  end
  begin
     id 28
     name rhand
     direction -1 -4.48973e-011 1.90973e-026   
     length 0.779235   
     axis -1.21857e-014 -90 -90   XYZ
    dof rx rz
    limits (-90.0 90.0)
           (-45.0 45.0)
  end
  begin
     id 29
     name rfingers
     direction -1 -4.48984e-011 3.81946e-026   
     length 0.62824   
     axis -2.43714e-014 -90 -90   XYZ
    dof rx
    limits (0.0 90.0)
  end
  begin
     id 30
     name rthumb
     direction -0.707107 -6.34968e-011 0.707107   
     length 0.90203   
     axis -90 -45 -2.85299e-015   XYZ
    dof rx rz
    limits (-45.0 45.0)
           (-45.0 45.0)
  end
:hierarchy
  begin
    root lhipjoint rhipjoint lowerback
    lhipjoint lfemur
    lfemur ltibia
    ltibia lfoot
    lfoot ltoes
    rhipjoint rfemur
    rfemur rtibia
    rtibia rfoot
    rfoot rtoes
    lowerback upperback
    upperback thorax
    thorax lowerneck lclavicle rclavicle
    lowerneck upperneck
    upperneck head
    lclavicle lhumerus
    lhumerus lradius
    lradius lwrist
    lwrist lhand lthumb
    lhand lfingers
    rclavicle rhumerus
    rhumerus rradius
    rradius rwrist
    rwrist rhand rthumb
    rhand rfingers
  end

#!OML:ASF I:\Random Stuff\random\construction\7_22_03\Session 2\subj1.ASF
:FULLY-SPECIFIED
:DEGREES
83
root 4.92171 18.598 -10.3099 3.48184 12.5038 -4.19125
lowerback 0.72216 2.09398 3.52463
upperback -1.45339 2.85565 0.131559
thorax -1.73179 1.3794 -1.89638
lowerneck -24.2531 2.94951 3.34695
upperneck 26.7233 2.68579 0.824947
head 13.0368 1.66583 0.25076
rclavicle -5.72748e-015 -1.74931e-014
rhumerus -38.547 11.4669 -89.7188
rradius 50.2882
rwrist -7.05839
rhand -15.6397 11.9446
rfingers 7.12502
rthumb 10.5477 -17.7707
lclavicle -5.72748e-015 -1.74931e-014
lhumerus -35.8169 -10.4324 88.7646
lradius 33.9717
lwrist 29.3257
lhand -19.5983 59.5635
lfingers 7.12502
lthumb -173.272 269.437
rfemur 2.17863 -5.90366 23.214
rtibia -1.35174e-014
rfoot -5.28087 -8.97683
rtoes -54.1017
lfemur -16.6204 -13.8519 -12.1813
ltibia 26.3355
lfoot -15.7822 3.14178
ltoes -59.6582
84
root 4.92597 18.5977 -10.3095 3.5153 12.3808 -4.15274
lowerback 0.718908 2.15725 3.51287
upperback -1.45981 2.93917 0.0917061
thorax -1.73023 1.42097 -1.93199
lowerneck -24.2845 2.90181 3.30403
upperneck 26.7405 2.62943 0.835989
head 13.0484 1.63833 0.252598
rclavicle -1.99779e-014 -1.70955e-014
rhumerus -38.3492 11.1477 -89.6544
rradius 50.0317
rwrist -6.74678
rhand -15.602 12.2106
rfingers 7.12502
rthumb 10.5841 -17.5029
lclavicle -1.99779e-014 -1.70955e-014
lhumerus -35.8229 -10.4321 88.6853
lradius 33.7607
lwrist 29.2874
lhand -19.6082 59.5786
lfingers 7.12502
lthumb -173.282 269.452
rfemur 2.1374 -5.78206 23.1556
rtibia 3.18055e-015
rfoot -5.22741 -8.97688
rtoes -54.1628
lfemur -16.6001 -14.003 -12.2266
ltibia 26.3187
lfoot -15.7794 3.33228
ltoes -59.5461
85
root 4.92993 18.5985 -10.3098 3.54753 12.2778 -4.13928
lowerback 0.715629 2.18774 3.50147
upperback -1.47405 2.97947 0.0686417
thorax -1.74002 1.44075 -1.95012
lowerneck -24.326 2.88965 3.33108
upperneck 26.7909 2.60743 0.810448
head 13.078 1.62817 0.23537
rclavicle -3.35573e-014 -3.33958e-014
rhumerus -38.2735 10.9917 -89.6306
rradius 49.9172
rwrist -6.61695
rhand -15.4789 12.6994
rfingers 7.12502
rthumb 10.7029 -17.008
lclavicle -3.35573e-014 -3.33958e-014
lhumerus -35.8527 -10.2994 88.5627
lradius 33.5425
lwrist 29.1429
lhand -19.8804 59.5899
lfingers 7.12502
lthumb -173.545 269.471
rfemur 2.08754 -5.67851 23.1302
rtibia 2.38542e-015
rfoot -5.15752 -8.97996
rtoes -54.2599
lfemur -16.598 -14.0085 -12.2477
ltibia 26.3065
lfoot -15.7337 3.41094
ltoes -59.4445
86
root 4.93463 18.5993 -10.3096 3.54107 12.1809 -4.15958
lowerback 0.739681 2.18633 3.50519
upperback -1.48194 2.97873 0.0635343
thorax -1.76124 1.4398 -1.95868
lowerneck -24.3008 2.90059 3.32519
upperneck 26.7859 2.61261 0.854138
head 13.0703 1.63607 0.253881
rclavicle 4.22045e-014 8.34896e-015
rhumerus -38.3238 11.0278 -89.6453
rradius 49.9632
rwrist -6.64722
rhand -15.3896 12.839
rfingers 7.12502
rthumb 10.7889 -16.8639
lclavicle 4.22045e-014 8.34896e-015
lhumerus -35.9013 -10.0759 88.3823
lradius 33.3349
lwrist 28.8997
lhand -20.2817 59.7467
lfingers 7.12502
lthumb -173.932 269.64
rfemur 2.08012 -5.5806 23.1428
rtibia -1.03368e-014
rfoot -5.17245 -8.97992
rtoes -54.413
lfemur -16.5659 -13.8296 -12.2621
ltibia 26.2969
lfoot -15.6932 3.39853
ltoes -59.5392
87
root 4.93968 18.5996 -10.3088 3.52269 12.0911 -4.21066
lowerback 0.774313 2.17084 3.52467
upperback -1.49094 2.96027 0.0750935
thorax -1.7907 1.4297 -1.95914
lowerneck -24.2172 2.90257 3.25945
upperneck 26.7362 2.61561 0.947537
head 13.0305 1.64363 0.299815
rclavicle -4.96962e-016 -8.74653e-015
rhumerus -38.359 11.1272 -89.6624
rradius 49.9848
rwrist -6.62653
rhand -15.3815 12.6681
rfingers 7.12502
rthumb 10.7968 -17.0344
lclavicle -4.96962e-016 -8.74653e-015
lhumerus -35.959 -9.88967 88.211
lradius 33.1234
lwrist 28.7249
lhand -20.3981 59.931
lfingers 7.12502
lthumb -174.044 269.827
rfemur 2.08143 -5.48822 23.1879
rtibia 1.59028e-014
rfoot -5.1836 -8.98645
rtoes -54.6255
lfemur -16.5248 -13.79 -12.2355
ltibia 26.2887
lfoot -15.6769 3.49387
ltoes -59.6059
